# xmcd
#
# Track frame offsets:
#	150
#	14152
#	33700
#	46117
#	61972
#	75862
#	88055
#	103712
#	128627
#	141650
#	154172
#	168070
#	181107
#	208045
#	220762
#	236862
#	258962
#	277212
#	297435
#	321282
#
# Disc length: 4493
#
# Revision: 3
# Processed by: cddbd v1.5.1PL0 Copyright (c) Steve Scherf et al.
# Submitted via: MusicManager 7.0.3.0 
# Normalized: r2:TDELIM( - )
#
DISCID=28118b14
DTITLE=Various Artist - Lady Sings The Blues
DYEAR=1418
DGENRE=Vocal
TTITLE0=Norah Jones - Dont Know Why
TTITLE1=Randy Crawford - Rainy night in Georgia
TTITLE2=Aretha Franklin - (You Make Me Feel Like) A Natural Woman
TTITLE3=Dusty Springfield - The Look Of Love
TTITLE4=Etta James - I Just Wanna Make Love To You
TTITLE5=Erma Franklin - Light My Fire
TTITLE6=Tina Turner - Night Time is the Right Time
TTITLE7=Bonnie Raitt - I Can't Make You Love Me
TTITLE8=Dionne Warwick - Walk On By
TTITLE9=Dinah Washington - Mad About the Boy
TTITLE10=Ella Fitzgerald - Night and Day
TTITLE11=Billie Holiday - That Ole Devil Called Love
TTITLE12=Sarah Vaughan - Misty
TTITLE13=Julie London - Cry Me A River
TTITLE14=Dinah Shore and Andre Previn - My Funny Valentine
TTITLE15=Ella Fitzgerald - Summertime
TTITLE16=Nina Simone - I Loves You Porgy
TTITLE17=Janis Joplin - Me and Bobby McGee
TTITLE18=Dianne Reeves - In a Sentimental Mood
TTITLE19=Sarah Vaughan, Jimmie Jones and Orchestra - Stormy Weather
EXTD=
EXTT0=
EXTT1=
EXTT2=
EXTT3=
EXTT4=
EXTT5=
EXTT6=
EXTT7=
EXTT8=
EXTT9=
EXTT10=
EXTT11=
EXTT12=
EXTT13=
EXTT14=
EXTT15=
EXTT16=
EXTT17=
EXTT18=
EXTT19=
PLAYORDER=
